<svg width="32" height="32" viewBox="0 0 32 32" fill="none" xmlns="http://www.w3.org/2000/svg">
<g clip-path="url(#clip0_165_2)">
<path d="M8.54 29.1612C8.26937 29.5787 7.71188 29.6975 7.295 29.4262C2.90438 26.5737 0 21.6256 0 16C0 15.3887 0.034375 14.7862 0.100625 14.1925C0.159375 13.6694 0.655 13.3087 1.17125 13.4125C1.62812 13.5044 1.93938 13.93 1.88688 14.3931C1.8275 14.9206 1.79688 15.4562 1.79688 15.9994C1.79688 20.9925 4.37375 25.3831 8.27 27.915C8.68813 28.1869 8.81062 28.7431 8.54 29.1612Z" fill="url(#paint0_linear_165_2)"/>
<path d="M25.0682 28.0725C25.3626 28.4863 25.257 29.0619 24.8339 29.3425C23.6414 30.1338 22.3364 30.7694 20.9482 31.2206C20.5357 31.3544 20.1164 31.4719 19.6901 31.5725C19.5951 31.595 19.4995 31.6169 19.4032 31.6375C19.1657 31.6888 18.927 31.735 18.6857 31.7756C18.5182 31.8038 18.3501 31.83 18.1807 31.8525C18.1139 31.8619 18.047 31.8706 17.9801 31.8788C17.9439 31.8831 17.9076 31.8875 17.8707 31.8919C17.8001 31.9 17.7289 31.9081 17.6576 31.915C17.3657 31.945 17.0714 31.9669 16.7751 31.9813C16.5182 31.9938 16.2601 32 16.0001 32C15.7214 32 15.4451 31.9931 15.1701 31.9788C14.8451 31.9625 14.5232 31.9356 14.2039 31.9C12.927 31.7575 11.6957 31.465 10.5282 31.0394C9.98887 30.8431 9.46262 30.6181 8.95199 30.3675C8.47012 30.1306 8.30512 29.5238 8.59762 29.0731C8.84387 28.6931 9.33637 28.5525 9.74262 28.7525C10.1964 28.9756 10.6639 29.1756 11.1439 29.35C12.1801 29.7275 13.2726 29.9875 14.4064 30.1138C14.6895 30.1456 14.9757 30.1694 15.2639 30.1838C15.5082 30.1963 15.7532 30.2025 16.0007 30.2025C16.2314 30.2025 16.4607 30.1969 16.6889 30.1856C16.9514 30.1731 17.2132 30.1538 17.472 30.1269C17.5351 30.1213 17.5982 30.1138 17.6614 30.1063C17.6939 30.1025 17.7264 30.0988 17.7582 30.095C17.8176 30.0875 17.877 30.08 17.9364 30.0719C18.087 30.0519 18.2357 30.0281 18.3845 30.0031C18.5989 29.9675 18.8107 29.9263 19.0214 29.8806C19.107 29.8625 19.192 29.8431 19.2764 29.8231C19.6545 29.7338 20.027 29.6294 20.3932 29.5106C21.6232 29.1113 22.7801 28.5481 23.8376 27.8469C24.242 27.5781 24.7864 27.6763 25.0682 28.0725Z" fill="url(#paint1_linear_165_2)"/>
<path d="M31.9999 16.4425C31.9999 16.9063 31.9787 17.365 31.9368 17.8188C31.9162 18.0469 31.8893 18.2744 31.858 18.5C31.8562 18.5175 31.8537 18.5344 31.8512 18.5519C31.7893 18.9875 31.7093 19.4175 31.6105 19.8407C31.5949 19.905 31.5793 19.9688 31.5637 20.0332C31.4837 20.3575 31.393 20.6775 31.2918 20.9932C31.2393 21.1582 31.1837 21.3225 31.1255 21.485C30.1799 24.1244 28.5137 26.4382 26.3524 28.2082C25.9518 28.5363 25.3449 28.4607 25.0405 28.0482C24.7699 27.6813 24.8362 27.1763 25.1918 26.885C27.1093 25.3138 28.588 23.2607 29.4268 20.9188C29.4787 20.775 29.528 20.6288 29.5743 20.4825C29.6643 20.2025 29.7449 19.9175 29.8155 19.63C29.8299 19.5732 29.8437 19.5169 29.8574 19.4594C29.9449 19.0838 30.0162 18.7025 30.0712 18.3157C30.073 18.3 30.0755 18.285 30.0768 18.27C30.1049 18.07 30.1287 17.8682 30.1468 17.6657C30.1843 17.2632 30.203 16.8557 30.203 16.4438C30.203 16.3763 30.2024 16.3094 30.2012 16.2419C30.1918 15.6232 30.1405 15.015 30.0487 14.4188C29.9805 13.9757 30.2712 13.5557 30.7218 13.4482C31.2343 13.3263 31.748 13.6544 31.8255 14.1575C31.9293 14.8307 31.988 15.5175 31.9987 16.2163C31.9993 16.2913 31.9999 16.3663 31.9999 16.4425Z" fill="url(#paint2_linear_165_2)"/>
<path d="M15.9863 0.926275C15.9863 1.40003 15.6182 1.79503 15.1451 1.82315C8.80885 2.1994 3.5901 6.73003 2.17634 12.7294C2.06509 13.2007 1.6001 13.4988 1.1251 13.4038H1.12447C0.62822 13.3038 0.30947 12.8144 0.425095 12.3219C2.01634 5.55878 7.8976 0.4519 15.0395 0.0281502C15.5538 -0.00184977 15.9863 0.41065 15.9863 0.926275Z" fill="url(#paint3_linear_165_2)"/>
<path d="M15.9299 0.926275C15.9299 1.40003 16.2981 1.79503 16.7712 1.82315C23.1074 2.1994 28.3262 6.73003 29.7399 12.7294C29.8512 13.2007 30.3162 13.4988 30.7912 13.4038H30.7918C31.2881 13.3038 31.6068 12.8144 31.4912 12.3219C29.9006 5.55878 24.0187 0.4519 16.8768 0.0281502C16.3624 -0.00184977 15.9299 0.41065 15.9299 0.926275Z" fill="url(#paint4_linear_165_2)"/>
<path d="M11.5312 10.9994V15.6894L7.90625 12.975V11.5481C7.90625 10.6588 8.6275 9.9375 9.51688 9.9375C9.90375 9.9375 10.2806 10.0631 10.5906 10.295L11.5312 10.9994Z" fill="url(#paint5_linear_165_2)"/>
<path d="M24.0937 11.5481V12.9812L20.4412 15.7169V11.0269L21.4255 10.29C21.7305 10.0612 22.1018 9.9375 22.483 9.9375C23.3724 9.9375 24.0937 10.6588 24.0937 11.5481Z" fill="url(#paint6_linear_165_2)"/>
<path d="M11.5312 15.6894V22.0625H9.05188C8.41938 22.0625 7.90625 21.55 7.90625 20.9169V12.975L11.5312 15.6894Z" fill="url(#paint7_linear_165_2)"/>
<path d="M24.0937 12.9813V20.9169C24.0937 21.55 23.5805 22.0625 22.948 22.0625H20.4412V15.7169L24.0937 12.9813Z" fill="url(#paint8_linear_165_2)"/>
<path d="M16.02 14.3612L16.0044 14.3494" stroke="url(#paint9_linear_165_2)" stroke-miterlimit="10"/>
<path d="M20.4412 11.0269V15.7169L16.0044 19.0394L11.5312 15.6894V10.9994L16.0044 14.3494L20.4412 11.0269Z" fill="url(#paint10_linear_165_2)"/>
<path d="M16.0044 14.3494L15.9888 14.3612" stroke="url(#paint11_linear_165_2)" stroke-miterlimit="10"/>
<path d="M16.02 19.0512L16.0044 19.0394" stroke="url(#paint12_linear_165_2)" stroke-miterlimit="10"/>
<path d="M16.0044 19.0394L15.9888 19.0512" stroke="url(#paint13_linear_165_2)" stroke-miterlimit="10"/>
</g>
<defs>
<linearGradient id="paint0_linear_165_2" x1="1.3026" y1="14.8326" x2="12.167" y2="22.6725" gradientUnits="userSpaceOnUse">
<stop stop-color="#793CA1"/>
<stop offset="1" stop-color="#F07B2C"/>
</linearGradient>
<linearGradient id="paint1_linear_165_2" x1="10.9698" y1="28.0783" x2="12.0913" y2="33.9563" gradientUnits="userSpaceOnUse">
<stop stop-color="#793CA1"/>
<stop offset="1" stop-color="#F07B2C"/>
</linearGradient>
<linearGradient id="paint2_linear_165_2" x1="25.9431" y1="14.7551" x2="35.5694" y2="20.9063" gradientUnits="userSpaceOnUse">
<stop stop-color="#793CA1"/>
<stop offset="1" stop-color="#F07B2C"/>
</linearGradient>
<linearGradient id="paint3_linear_165_2" x1="2.73911" y1="1.21726" x2="11.3429" y2="14.6741" gradientUnits="userSpaceOnUse">
<stop stop-color="#793CA1"/>
<stop offset="1" stop-color="#F07B2C"/>
</linearGradient>
<linearGradient id="paint4_linear_165_2" x1="18.2677" y1="1.21726" x2="26.8715" y2="14.6741" gradientUnits="userSpaceOnUse">
<stop stop-color="#793CA1"/>
<stop offset="1" stop-color="#F07B2C"/>
</linearGradient>
<linearGradient id="paint5_linear_165_2" x1="8.45" y1="10.4488" x2="12.465" y2="13.8503" gradientUnits="userSpaceOnUse">
<stop stop-color="#793CA1"/>
<stop offset="1" stop-color="#F07B2C"/>
</linearGradient>
<linearGradient id="paint6_linear_165_2" x1="20.989" y1="10.4512" x2="25.0251" y2="13.8801" gradientUnits="userSpaceOnUse">
<stop stop-color="#793CA1"/>
<stop offset="1" stop-color="#F07B2C"/>
</linearGradient>
<linearGradient id="paint7_linear_165_2" x1="8.45" y1="13.7828" x2="13.8065" y2="16.6551" gradientUnits="userSpaceOnUse">
<stop stop-color="#793CA1"/>
<stop offset="1" stop-color="#F07B2C"/>
</linearGradient>
<linearGradient id="paint8_linear_165_2" x1="20.989" y1="13.7885" x2="26.3662" y2="16.6958" gradientUnits="userSpaceOnUse">
<stop stop-color="#793CA1"/>
<stop offset="1" stop-color="#F07B2C"/>
</linearGradient>
<linearGradient id="paint9_linear_165_2" x1="16.0067" y1="14.3504" x2="16.0139" y2="14.3632" gradientUnits="userSpaceOnUse">
<stop stop-color="#793CA1"/>
<stop offset="1" stop-color="#F07B2C"/>
</linearGradient>
<linearGradient id="paint10_linear_165_2" x1="12.8677" y1="11.7141" x2="18.1334" y2="19.5585" gradientUnits="userSpaceOnUse">
<stop stop-color="#793CA1"/>
<stop offset="1" stop-color="#F07B2C"/>
</linearGradient>
<linearGradient id="paint11_linear_165_2" x1="15.9911" y1="14.3504" x2="15.9983" y2="14.3632" gradientUnits="userSpaceOnUse">
<stop stop-color="#793CA1"/>
<stop offset="1" stop-color="#F07B2C"/>
</linearGradient>
<linearGradient id="paint12_linear_165_2" x1="16.0067" y1="19.0404" x2="16.0139" y2="19.0532" gradientUnits="userSpaceOnUse">
<stop stop-color="#793CA1"/>
<stop offset="1" stop-color="#F07B2C"/>
</linearGradient>
<linearGradient id="paint13_linear_165_2" x1="15.9911" y1="19.0404" x2="15.9983" y2="19.0532" gradientUnits="userSpaceOnUse">
<stop stop-color="#793CA1"/>
<stop offset="1" stop-color="#F07B2C"/>
</linearGradient>
<clipPath id="clip0_165_2">
<rect width="32" height="32" fill="white"/>
</clipPath>
</defs>
</svg>
