<svg width="30" height="30" viewBox="0 0 30 30" fill="none" xmlns="http://www.w3.org/2000/svg">
<path d="M20.4686 4.0623C21.9177 4.06663 23.3063 4.64423 24.331 5.66896C25.3558 6.69369 25.9334 8.08227 25.9377 9.53145V20.4686C25.9334 21.9177 25.3558 23.3063 24.331 24.331C23.3063 25.3558 21.9177 25.9334 20.4686 25.9377H9.53145C8.08227 25.9334 6.69369 25.3558 5.66896 24.331C4.64423 23.3063 4.06663 21.9177 4.0623 20.4686V9.53145C4.06663 8.08227 4.64423 6.69369 5.66896 5.66896C6.69369 4.64423 8.08227 4.06663 9.53145 4.0623H20.4686M20.4686 1.875H9.53145C5.32031 1.875 1.875 5.32031 1.875 9.53145V20.4686C1.875 24.6797 5.32031 28.125 9.53145 28.125H20.4686C24.6797 28.125 28.125 24.6797 28.125 20.4686V9.53145C28.125 5.32031 24.6797 1.875 20.4686 1.875V1.875Z" fill="url(#paint0_linear_165_22)"/>
<path d="M22.1092 9.53143C21.7847 9.53143 21.4675 9.43521 21.1977 9.25494C20.9279 9.07466 20.7176 8.81843 20.5934 8.51865C20.4693 8.21886 20.4368 7.88899 20.5001 7.57074C20.5634 7.25249 20.7196 6.96016 20.9491 6.73071C21.1785 6.50127 21.4709 6.34501 21.7891 6.28171C22.1074 6.2184 22.4372 6.25089 22.737 6.37507C23.0368 6.49924 23.293 6.70953 23.4733 6.97933C23.6536 7.24913 23.7498 7.56632 23.7498 7.89081C23.7503 8.10639 23.7081 8.31994 23.6259 8.5192C23.5436 8.71846 23.4228 8.8995 23.2703 9.05194C23.1179 9.20438 22.9368 9.32521 22.7376 9.40749C22.5383 9.48978 22.3248 9.5319 22.1092 9.53143V9.53143ZM15 10.6248C15.8653 10.6248 16.7112 10.8814 17.4307 11.3621C18.1502 11.8429 18.711 12.5262 19.0422 13.3257C19.3733 14.1251 19.4599 15.0048 19.2911 15.8535C19.1223 16.7023 18.7056 17.4818 18.0937 18.0937C17.4819 18.7056 16.7023 19.1223 15.8536 19.2911C15.0049 19.4599 14.1252 19.3733 13.3257 19.0421C12.5262 18.711 11.8429 18.1502 11.3622 17.4307C10.8814 16.7112 10.6248 15.8653 10.6248 15C10.626 13.84 11.0874 12.7279 11.9076 11.9076C12.7279 11.0874 13.84 10.626 15 10.6248M15 8.43749C13.7021 8.43749 12.4333 8.82237 11.3541 9.54347C10.2749 10.2646 9.43374 11.2895 8.93704 12.4886C8.44034 13.6878 8.31038 15.0073 8.5636 16.2803C8.81682 17.5533 9.44183 18.7226 10.3596 19.6404C11.2774 20.5582 12.4467 21.1832 13.7197 21.4364C14.9927 21.6896 16.3122 21.5596 17.5114 21.0629C18.7105 20.5662 19.7354 19.7251 20.4565 18.6459C21.1776 17.5667 21.5625 16.2979 21.5625 15C21.5625 13.2595 20.8711 11.5903 19.6404 10.3596C18.4097 9.12889 16.7405 8.43749 15 8.43749V8.43749Z" fill="url(#paint1_linear_165_22)"/>
<defs>
<linearGradient id="paint0_linear_165_22" x1="1.875" y1="15" x2="31.3333" y2="15" gradientUnits="userSpaceOnUse">
<stop stop-color="#793CA1"/>
<stop offset="1" stop-color="#F07B2C"/>
</linearGradient>
<linearGradient id="paint1_linear_165_22" x1="8.4375" y1="13.9063" x2="25.6213" y2="13.9063" gradientUnits="userSpaceOnUse">
<stop stop-color="#793CA1"/>
<stop offset="1" stop-color="#F07B2C"/>
</linearGradient>
</defs>
</svg>
