<svg width="30" height="30" viewBox="0 0 30 30" fill="none" xmlns="http://www.w3.org/2000/svg">
<g clip-path="url(#clip0_161_40)">
<path d="M22.9264 16.261V21.8528C22.9265 21.8857 22.9199 21.9183 22.9072 21.9486C22.8946 21.979 22.876 22.0066 22.8526 22.0297C22.8292 22.0528 22.8014 22.0711 22.7709 22.0835C22.7404 22.0958 22.7077 22.102 22.6748 22.1016H19.7894C19.7568 22.1016 19.7244 22.0952 19.6942 22.0826C19.664 22.0701 19.6366 22.0518 19.6135 22.0287C19.5904 22.0056 19.5721 21.9782 19.5596 21.948C19.5471 21.9178 19.5406 21.8854 19.5406 21.8528V16.6524C19.5406 15.2852 19.0513 14.3486 17.8239 14.3486C17.4421 14.3507 17.0703 14.4709 16.7595 14.6926C16.4486 14.9144 16.214 15.2268 16.0877 15.5871C15.9992 15.8575 15.9613 16.1418 15.9758 16.4259V21.8528C15.9758 21.8857 15.9693 21.9183 15.9566 21.9486C15.944 21.979 15.9254 22.0066 15.902 22.0297C15.8786 22.0528 15.8508 22.0711 15.8203 22.0835C15.7898 22.0958 15.7571 22.102 15.7242 22.1016H12.8388C12.8061 22.102 12.7735 22.0958 12.7432 22.0834C12.7128 22.071 12.6852 22.0527 12.6621 22.0295C12.6389 22.0064 12.6206 21.9788 12.6082 21.9484C12.5958 21.9181 12.5896 21.8855 12.59 21.8528C12.59 20.4548 12.6236 13.7446 12.59 12.1706C12.5893 12.1374 12.5951 12.1044 12.6073 12.0736C12.6195 12.0428 12.6377 12.0147 12.6609 11.991C12.6841 11.9673 12.7117 11.9484 12.7423 11.9356C12.7729 11.9227 12.8057 11.9161 12.8388 11.9161H15.7186C15.7854 11.9161 15.8494 11.9426 15.8965 11.9898C15.9437 12.037 15.9703 12.101 15.9703 12.1678V13.3588C15.9618 13.3693 15.9544 13.3806 15.9479 13.3924H15.9703V13.3588C16.2766 12.8269 16.723 12.3893 17.2608 12.0935C17.7987 11.7977 18.4073 11.6551 19.0206 11.6813C21.2573 11.6813 22.9348 13.1351 22.9348 16.2638L22.9264 16.261ZM7.57976 22.1016H10.4651C10.4978 22.1016 10.5302 22.0952 10.5603 22.0826C10.5905 22.0701 10.618 22.0518 10.6411 22.0287C10.6642 22.0056 10.6825 21.9782 10.695 21.948C10.7075 21.9178 10.714 21.8854 10.714 21.8528V12.1678C10.7143 12.1348 10.7082 12.1022 10.6958 12.0717C10.6835 12.0412 10.6652 12.0134 10.6421 11.99C10.6189 11.9666 10.5914 11.948 10.561 11.9353C10.5306 11.9227 10.498 11.9161 10.4651 11.9161H7.57976C7.51302 11.9161 7.44902 11.9426 7.40183 11.9898C7.35464 12.037 7.32813 12.101 7.32813 12.1678V21.8528C7.32812 21.8857 7.33465 21.9183 7.34733 21.9486C7.36001 21.979 7.37859 22.0066 7.40199 22.0297C7.4254 22.0528 7.45316 22.0711 7.48367 22.0835C7.51419 22.0958 7.54684 22.102 7.57976 22.1016V22.1016Z" fill="white"/>
<path d="M8.92161 10.6188C9.9222 10.6188 10.7333 9.8077 10.7333 8.8071C10.7333 7.80651 9.9222 6.99536 8.92161 6.99536C7.92101 6.99536 7.10986 7.80651 7.10986 8.8071C7.10986 9.8077 7.92101 10.6188 8.92161 10.6188Z" fill="white"/>
<path d="M24.7409 1.92637C25.6243 1.92785 26.4712 2.27945 27.0959 2.90414C27.7205 3.52882 28.0721 4.37565 28.0736 5.25909V24.7409C28.0721 25.6243 27.7205 26.4712 27.0959 27.0959C26.4712 27.7205 25.6243 28.0721 24.7409 28.0736H5.25909C4.37565 28.0721 3.52882 27.7205 2.90414 27.0959C2.27945 26.4712 1.92785 25.6243 1.92637 24.7409V5.25909C1.92785 4.37565 2.27945 3.52882 2.90414 2.90414C3.52882 2.27945 4.37565 1.92785 5.25909 1.92637H24.7409ZM24.7409 0H5.25909C3.86429 0 2.52662 0.554081 1.54035 1.54035C0.554081 2.52662 0 3.86429 0 5.25909L0 24.7409C0 26.1357 0.554081 27.4734 1.54035 28.4596C2.52662 29.4459 3.86429 30 5.25909 30H24.7409C26.1357 30 27.4734 29.4459 28.4596 28.4596C29.4459 27.4734 30 26.1357 30 24.7409V5.25909C30 3.86429 29.4459 2.52662 28.4596 1.54035C27.4734 0.554081 26.1357 0 24.7409 0V0Z" fill="white"/>
</g>
<defs>
<clipPath id="clip0_161_40">
<rect width="30" height="30" fill="white"/>
</clipPath>
</defs>
</svg>
