<svg width="160" height="160" viewBox="0 0 160 160" fill="none" xmlns="http://www.w3.org/2000/svg">
<g clip-path="url(#clip0_161_3)">
<path d="M35 90H125C144.3 90 160 74.3 160 55C160 35.7 144.3 20 125 20H40C40 8.95 31.05 0 20 0C8.95 0 0 8.95 0 20C0 31.05 8.95 40 20 40C27.38 40 33.76 35.95 37.23 30H125C138.78 30 150 41.22 150 55C150 68.78 138.78 80 125 80H35C15.7 80 0 95.7 0 115C0 134.3 15.7 150 35 150H122.77C126.23 155.95 132.61 160 140 160C151.05 160 160 151.05 160 140C160 128.95 151.05 120 140 120C128.95 120 120 128.95 120 140H35C21.22 140 10 128.78 10 115C10 101.22 21.22 90 35 90Z" fill="url(#paint0_linear_161_3)"/>
<path d="M35 90H125C144.3 90 160 74.3 160 55C160 35.7 144.3 20 125 20H40C40 8.95 31.05 0 20 0C8.95 0 0 8.95 0 20C0 31.05 8.95 40 20 40C27.38 40 33.76 35.95 37.23 30H125C138.78 30 150 41.22 150 55C150 68.78 138.78 80 125 80H35C15.7 80 0 95.7 0 115C0 134.3 15.7 150 35 150H122.77C126.23 155.95 132.61 160 140 160C151.05 160 160 151.05 160 140C160 128.95 151.05 120 140 120C128.95 120 120 128.95 120 140H35C21.22 140 10 128.78 10 115C10 101.22 21.22 90 35 90Z" fill="black" fill-opacity="0.2"/>
</g>
<defs>
<linearGradient id="paint0_linear_161_3" x1="160" y1="80" x2="-1.24507e-06" y2="80" gradientUnits="userSpaceOnUse">
<stop stop-color="#9C2FE4"/>
<stop offset="1" stop-color="#F07B2C"/>
</linearGradient>
<clipPath id="clip0_161_3">
<rect width="160" height="160" fill="white"/>
</clipPath>
</defs>
</svg>
