<svg width="160" height="160" viewBox="0 0 160 160" fill="none" xmlns="http://www.w3.org/2000/svg">
<path d="M128.149 123.667L131.851 127.027C134.167 124.474 136.293 121.754 138.211 118.891L134.056 116.109C132.274 118.769 130.3 121.295 128.149 123.667Z" fill="url(#paint0_linear_161_10)"/>
<path d="M80.0001 125C78.5166 125 77.0666 125.44 75.8332 126.264C74.6001 127.088 73.6385 128.259 73.071 129.63C72.5032 131 72.3547 132.508 72.6441 133.963C72.9335 135.418 73.6479 136.754 74.6966 137.803C75.7457 138.852 77.0819 139.567 78.5369 139.856C79.9916 140.145 81.4997 139.997 82.8701 139.429C84.2407 138.862 85.4119 137.9 86.236 136.667C87.0601 135.433 87.5001 133.983 87.5001 132.5C87.4979 130.512 86.7069 128.605 85.301 127.199C83.8947 125.793 81.9885 125.002 80.0001 125ZM80.0001 135C79.5057 135 79.0222 134.853 78.611 134.579C78.2001 134.304 77.8794 133.913 77.6904 133.457C77.501 133 77.4516 132.497 77.5482 132.012C77.6444 131.527 77.8826 131.082 78.2322 130.732C78.5819 130.382 79.0272 130.144 79.5122 130.048C79.9972 129.952 80.5001 130.001 80.9566 130.19C81.4135 130.379 81.8041 130.7 82.0788 131.111C82.3535 131.522 82.5001 132.006 82.5001 132.5C82.4994 133.163 82.2357 133.798 81.7669 134.267C81.2982 134.736 80.6629 134.999 80.0001 135Z" fill="url(#paint1_linear_161_10)"/>
<path d="M123.559 119.488C123.122 117.551 122.247 115.739 121 114.193C119.754 112.647 118.169 111.408 116.369 110.57L90.0001 98.4003V93.8378L91.9335 92.5487C93.6473 91.4091 95.0526 89.8628 96.0238 88.0481C96.9951 86.2334 97.5023 84.2065 97.5001 82.1481V64.6369C99.2585 64.1572 100.859 63.2206 102.139 61.9225C103.067 60.9884 103.799 59.8775 104.29 58.6553C104.782 57.4331 105.023 56.1247 104.999 54.8075C104.935 52.1931 103.856 49.7066 101.989 47.8753C100.122 46.0444 97.6151 45.0128 95.0001 45C93.6663 44.9956 92.3454 45.2603 91.1163 45.7781C89.887 46.2956 88.7748 47.0559 87.846 48.0131C86.742 49.165 85.3667 50.0219 83.846 50.505C82.3254 50.9881 80.7076 51.0822 79.1413 50.7784C77.5423 50.4584 76.0538 49.729 74.821 48.6615H74.8207C73.071 47.1444 70.9938 46.0528 68.752 45.4725C66.5101 44.8922 64.1642 44.8391 61.8982 45.3169C59.6323 45.7947 57.5076 46.7909 55.691 48.2272C53.8745 49.6634 52.4148 51.5006 51.427 53.5953C50.4392 55.6897 49.9498 57.9847 49.997 60.3C50.0442 62.6153 50.627 64.8881 51.6995 66.9406C52.7723 68.9931 54.3054 70.7694 56.1792 72.1303C58.0529 73.4912 60.2163 74.3997 62.5001 74.7847V82.1481C62.4979 84.2065 63.0051 86.2334 63.9763 88.0481C64.9476 89.8628 66.3526 91.4091 68.0663 92.5487L70.0001 93.8378V98.4003L43.6317 110.57C41.8307 111.408 40.246 112.647 38.9995 114.193C37.7529 115.739 36.8779 117.551 36.4417 119.488L33.1848 134.144C32.6773 136.427 32.8001 138.806 33.5398 141.025L35.2567 146.176C36.111 148.747 37.7538 150.983 39.952 152.567C42.1498 154.151 44.7907 155.002 47.5001 155H112.5C115.209 155.002 117.85 154.151 120.049 152.567C122.246 150.983 123.889 148.746 124.744 146.175L126.46 141.025C127.2 138.806 127.323 136.427 126.815 134.144L123.559 119.488ZM45.0001 149.595C43.8354 149.207 42.777 148.553 41.9088 147.686C41.041 146.817 40.3873 145.759 40.0001 144.594L38.4685 140H45.0001V149.595ZM45.0001 117.5V135H38.1167L41.3226 120.573C41.5735 119.46 42.061 118.413 42.752 117.505C43.4429 116.597 44.3213 115.848 45.3273 115.309C45.1101 116.019 44.9998 116.757 45.0001 117.5ZM63.5798 69.9019C61.076 69.5409 58.802 68.2453 57.2148 66.2756C55.6276 64.3059 54.8454 61.8081 55.0251 59.285C55.1992 56.8875 56.2301 54.6328 57.9292 52.9325C59.6285 51.2325 61.8829 50.2003 64.2801 50.025C64.5201 50.0087 64.7588 50.0003 64.9967 50.0003C67.4029 49.9944 69.7298 50.8609 71.5457 52.4397C74.3457 54.8647 77.9707 56.1203 81.6707 55.9466C85.3707 55.7728 88.8623 54.1831 91.4229 51.5066C91.8873 51.0281 92.4432 50.6478 93.0579 50.389C93.6726 50.1303 94.3332 49.9978 95.0001 50C96.3073 50.0062 97.5607 50.5216 98.4942 51.4369C99.4276 52.3525 99.9673 53.5953 99.9992 54.9025C100.009 55.5547 99.887 56.2022 99.6413 56.8066C99.3957 57.4109 99.0313 57.9597 98.5698 58.4203C98.0817 58.9175 97.5001 59.3131 96.8585 59.5841C96.217 59.8553 95.5279 59.9965 94.8313 60H81.1804C77.641 59.9875 74.1585 60.8934 71.0739 62.6287C67.9889 64.3644 65.4067 66.8703 63.5798 69.9019ZM67.5001 82.1481V73.1134C68.8348 70.6512 70.8113 68.5969 73.2201 67.1681C75.6292 65.7397 78.3798 64.9903 81.1804 65H92.5001V82.1481C92.5013 83.3831 92.197 84.5994 91.6142 85.6881C91.0317 86.7769 90.1885 87.7047 89.1601 88.3887L86.1132 90.42C85.7707 90.6481 85.4901 90.9575 85.2957 91.3203C85.1017 91.6831 85.0001 92.0884 85.0001 92.5V98.1981L80.0001 99.865L75.0001 98.1981V92.5C75.0001 92.0884 74.8985 91.6831 74.7042 91.3203C74.5101 90.9575 74.2292 90.6481 73.8867 90.42L70.8398 88.3887C69.8117 87.7047 68.9685 86.7769 68.3857 85.6881C67.8029 84.5994 67.4988 83.3831 67.5001 82.1481ZM72.6485 102.685L79.2095 104.872C79.7226 105.043 80.2776 105.043 80.7907 104.872L87.3517 102.685L103.201 110H56.7992L72.6485 102.685ZM110 150H50.0001V117.5C50.0007 116.837 50.2645 116.202 50.7332 115.733C51.2017 115.264 51.8373 115.001 52.5001 115H107.5C108.163 115.001 108.798 115.264 109.267 115.733C109.736 116.202 109.999 116.837 110 117.5V150ZM120 144.594C119.613 145.759 118.959 146.817 118.091 147.686C117.223 148.553 116.165 149.207 115 149.595V140H121.531L120 144.594ZM115 135V117.5C115 116.757 114.89 116.019 114.673 115.309C115.679 115.848 116.557 116.597 117.248 117.505C117.939 118.413 118.427 119.46 118.677 120.573L121.883 135H115Z" fill="url(#paint2_linear_161_10)"/>
<path d="M50 97.5V77.5C49.9978 75.5116 49.2069 73.6053 47.8009 72.1991C46.3947 70.7931 44.4884 70.0022 42.5 70H12.5C10.5116 70.0022 8.60525 70.7931 7.19922 72.1991C5.79319 73.6053 5.00228 75.5116 5 77.5V97.5C5.00228 99.4884 5.79319 101.395 7.19922 102.801C8.60525 104.207 10.5116 104.998 12.5 105H42.5C44.4884 104.998 46.3947 104.207 47.8009 102.801C49.2069 101.395 49.9978 99.4884 50 97.5ZM12.5 75H42.5C42.5872 75 42.6741 75.0047 42.7609 75.0138L27.5 84.5519L12.2392 75.0138C12.3258 75.0047 12.4129 75 12.5 75ZM10 97.5V79.5106L26.1749 89.62C26.5723 89.8684 27.0314 90 27.5 90C27.9686 90 28.4277 89.8684 28.8251 89.62L45 79.5106V97.5C44.9994 98.1628 44.7356 98.7981 44.2669 99.2669C43.7981 99.7356 43.1628 99.9994 42.5 100H12.5C11.8372 99.9994 11.2017 99.7356 10.7331 99.2669C10.2644 98.7981 10.0008 98.1628 10 97.5Z" fill="url(#paint3_linear_161_10)"/>
<path d="M42.5 60H45V55H42.5C41.8372 54.9994 41.2019 54.7356 40.7331 54.2669C40.2644 53.7981 40.0006 53.1628 40 52.5V12.5C40.0006 11.8372 40.2644 11.2017 40.7331 10.7331C41.2019 10.2644 41.8372 10.0008 42.5 10H62.5C63.1628 10.0008 63.7981 10.2644 64.2669 10.7331C64.7356 11.2017 64.9994 11.8372 65 12.5V40H70V12.5C69.9978 10.5116 69.2069 8.60525 67.8009 7.19922C66.3947 5.79319 64.4884 5.00228 62.5 5H42.5C40.5116 5.00228 38.6053 5.79319 37.1991 7.19922C35.7931 8.60525 35.0022 10.5116 35 12.5V52.5C35.0022 54.4884 35.7931 56.3947 37.1991 57.8009C38.6053 59.2069 40.5116 59.9978 42.5 60Z" fill="url(#paint4_linear_161_10)"/>
<path d="M60 15H45V20H60V15Z" fill="url(#paint5_linear_161_10)"/>
<path d="M95 10H100V17.5C100 18.163 100.263 18.7989 100.732 19.2677C101.201 19.7366 101.837 20 102.5 20H122.5C123.163 20 123.799 19.7366 124.268 19.2677C124.737 18.7989 125 18.163 125 17.5V10H130V55H110V60H132.5C133.163 60 133.799 59.7366 134.268 59.2678C134.737 58.7987 135 58.1631 135 57.5V7.5C135 6.83697 134.737 6.20109 134.268 5.73228C133.799 5.26344 133.163 5.00003 132.5 5H92.5C91.8369 5.00003 91.2012 5.26344 90.7322 5.73228C90.2634 6.20109 90 6.83697 90 7.5V40H95V10ZM105 10H120V15H105V10Z" fill="url(#paint6_linear_161_10)"/>
<path d="M125 25H100V30H125V25Z" fill="url(#paint7_linear_161_10)"/>
<path d="M125 35H100V40H125V35Z" fill="url(#paint8_linear_161_10)"/>
<path d="M125 45H107.5V50H125V45Z" fill="url(#paint9_linear_161_10)"/>
<path d="M145 15H140V60H145V15Z" fill="url(#paint10_linear_161_10)"/>
<path d="M133.601 75H131.399C128.416 75 125.512 75.9597 123.117 77.7375C120.721 79.515 118.961 82.0162 118.096 84.8716C117.232 87.7266 117.309 90.7841 118.316 93.5922C119.323 96.4 121.207 98.8094 123.689 100.464L125 101.338V110C125 110.663 125.263 111.299 125.732 111.768C126.201 112.237 126.837 112.5 127.5 112.5H137.5C138.163 112.5 138.799 112.237 139.268 111.768C139.737 111.299 140 110.663 140 110V101.338L141.311 100.464C143.793 98.8094 145.677 96.4 146.684 93.5922C147.691 90.7841 147.768 87.7266 146.904 84.8716C146.039 82.0162 144.279 79.515 141.883 77.7375C139.488 75.9597 136.584 75 133.601 75ZM135 107.5H130V102.5H135V107.5ZM138.537 96.3041L136.743 97.5H135V92.5H137.5V87.5H127.5V92.5H130V97.5H128.257L126.463 96.3041C124.873 95.2444 123.668 93.7019 123.023 91.9041C122.378 90.1062 122.328 88.1484 122.882 86.3203C123.435 84.4925 124.562 82.8909 126.096 81.7528C127.63 80.6147 129.489 80 131.399 80H133.601C135.511 80 137.37 80.6147 138.904 81.7528C140.438 82.8909 141.565 84.4925 142.118 86.3203C142.672 88.1484 142.622 90.1062 141.978 91.9041C141.333 93.7019 140.127 95.2444 138.537 96.3041Z" fill="url(#paint11_linear_161_10)"/>
<path d="M31.5503 36.6671L27.8247 33.3328C19.9116 42.1731 14.3749 52.8796 11.7346 64.4465L16.6107 65.5531C19.0625 54.8143 24.2032 44.8743 31.5503 36.6671Z" fill="url(#paint12_linear_161_10)"/>
<path d="M17.2776 111.113C20.1515 116.893 23.8098 122.248 28.1489 127.026L31.8513 123.666C27.8216 119.228 24.4241 114.255 21.7551 108.887L17.2776 111.113Z" fill="url(#paint13_linear_161_10)"/>
<path d="M84.8174 15.1758L85.1824 10.1893C81.7321 9.93838 78.2677 9.93838 74.8174 10.1893L75.1824 15.1758C78.3899 14.9427 81.6099 14.9427 84.8174 15.1758Z" fill="url(#paint14_linear_161_10)"/>
<path d="M135 65H130V70H135V65Z" fill="url(#paint15_linear_161_10)"/>
<path d="M153.882 75.264L148.882 77.764L151.118 82.2362L156.118 79.7362L153.882 75.264Z" fill="url(#paint16_linear_161_10)"/>
<path d="M145.732 65.7322L140.732 70.7322L144.268 74.2678L149.268 69.2678L145.732 65.7322Z" fill="url(#paint17_linear_161_10)"/>
<path d="M111.118 75.2638L108.882 79.736L113.882 82.236L116.118 77.7638L111.118 75.2638Z" fill="url(#paint18_linear_161_10)"/>
<path d="M119.268 65.7322L115.732 69.2678L120.732 74.2678L124.268 70.7322L119.268 65.7322Z" fill="url(#paint19_linear_161_10)"/>
<defs>
<linearGradient id="paint0_linear_161_10" x1="138.211" y1="121.568" x2="128.149" y2="121.568" gradientUnits="userSpaceOnUse">
<stop stop-color="#793CA1"/>
<stop offset="1" stop-color="#F07B2C"/>
</linearGradient>
<linearGradient id="paint1_linear_161_10" x1="87.5001" y1="132.5" x2="72.5" y2="132.5" gradientUnits="userSpaceOnUse">
<stop stop-color="#793CA1"/>
<stop offset="1" stop-color="#F07B2C"/>
</linearGradient>
<linearGradient id="paint2_linear_161_10" x1="127.123" y1="99.997" x2="32.8774" y2="99.997" gradientUnits="userSpaceOnUse">
<stop stop-color="#793CA1"/>
<stop offset="1" stop-color="#F07B2C"/>
</linearGradient>
<linearGradient id="paint3_linear_161_10" x1="50" y1="87.5" x2="5" y2="87.5" gradientUnits="userSpaceOnUse">
<stop stop-color="#793CA1"/>
<stop offset="1" stop-color="#F07B2C"/>
</linearGradient>
<linearGradient id="paint4_linear_161_10" x1="70" y1="32.5" x2="35" y2="32.5" gradientUnits="userSpaceOnUse">
<stop stop-color="#793CA1"/>
<stop offset="1" stop-color="#F07B2C"/>
</linearGradient>
<linearGradient id="paint5_linear_161_10" x1="60" y1="17.5" x2="45" y2="17.5" gradientUnits="userSpaceOnUse">
<stop stop-color="#793CA1"/>
<stop offset="1" stop-color="#F07B2C"/>
</linearGradient>
<linearGradient id="paint6_linear_161_10" x1="135" y1="32.5" x2="90" y2="32.5" gradientUnits="userSpaceOnUse">
<stop stop-color="#793CA1"/>
<stop offset="1" stop-color="#F07B2C"/>
</linearGradient>
<linearGradient id="paint7_linear_161_10" x1="125" y1="27.5" x2="100" y2="27.5" gradientUnits="userSpaceOnUse">
<stop stop-color="#793CA1"/>
<stop offset="1" stop-color="#F07B2C"/>
</linearGradient>
<linearGradient id="paint8_linear_161_10" x1="125" y1="37.5" x2="100" y2="37.5" gradientUnits="userSpaceOnUse">
<stop stop-color="#793CA1"/>
<stop offset="1" stop-color="#F07B2C"/>
</linearGradient>
<linearGradient id="paint9_linear_161_10" x1="125" y1="47.5" x2="107.5" y2="47.5" gradientUnits="userSpaceOnUse">
<stop stop-color="#793CA1"/>
<stop offset="1" stop-color="#F07B2C"/>
</linearGradient>
<linearGradient id="paint10_linear_161_10" x1="145" y1="37.5" x2="140" y2="37.5" gradientUnits="userSpaceOnUse">
<stop stop-color="#793CA1"/>
<stop offset="1" stop-color="#F07B2C"/>
</linearGradient>
<linearGradient id="paint11_linear_161_10" x1="147.5" y1="93.75" x2="117.5" y2="93.75" gradientUnits="userSpaceOnUse">
<stop stop-color="#793CA1"/>
<stop offset="1" stop-color="#F07B2C"/>
</linearGradient>
<linearGradient id="paint12_linear_161_10" x1="31.5503" y1="49.4429" x2="11.7346" y2="49.4429" gradientUnits="userSpaceOnUse">
<stop stop-color="#793CA1"/>
<stop offset="1" stop-color="#F07B2C"/>
</linearGradient>
<linearGradient id="paint13_linear_161_10" x1="31.8513" y1="117.957" x2="17.2776" y2="117.957" gradientUnits="userSpaceOnUse">
<stop stop-color="#793CA1"/>
<stop offset="1" stop-color="#F07B2C"/>
</linearGradient>
<linearGradient id="paint14_linear_161_10" x1="85.1824" y1="12.5885" x2="74.8174" y2="12.5885" gradientUnits="userSpaceOnUse">
<stop stop-color="#793CA1"/>
<stop offset="1" stop-color="#F07B2C"/>
</linearGradient>
<linearGradient id="paint15_linear_161_10" x1="135" y1="67.5" x2="130" y2="67.5" gradientUnits="userSpaceOnUse">
<stop stop-color="#793CA1"/>
<stop offset="1" stop-color="#F07B2C"/>
</linearGradient>
<linearGradient id="paint16_linear_161_10" x1="156.118" y1="78.7501" x2="148.882" y2="78.7501" gradientUnits="userSpaceOnUse">
<stop stop-color="#793CA1"/>
<stop offset="1" stop-color="#F07B2C"/>
</linearGradient>
<linearGradient id="paint17_linear_161_10" x1="149.268" y1="70" x2="140.732" y2="70" gradientUnits="userSpaceOnUse">
<stop stop-color="#793CA1"/>
<stop offset="1" stop-color="#F07B2C"/>
</linearGradient>
<linearGradient id="paint18_linear_161_10" x1="116.118" y1="78.7499" x2="108.882" y2="78.7499" gradientUnits="userSpaceOnUse">
<stop stop-color="#793CA1"/>
<stop offset="1" stop-color="#F07B2C"/>
</linearGradient>
<linearGradient id="paint19_linear_161_10" x1="124.268" y1="70" x2="115.732" y2="70" gradientUnits="userSpaceOnUse">
<stop stop-color="#793CA1"/>
<stop offset="1" stop-color="#F07B2C"/>
</linearGradient>
</defs>
</svg>
